<svg width="115" height="115" viewBox="0 0 115 115" fill="none" xmlns="http://www.w3.org/2000/svg">
<g clip-path="url(#clip0_137_585)">
<path fill-rule="evenodd" clip-rule="evenodd" d="M64.7272 23.2882C62.8367 24.912 69.0533 28.9711 78.3759 32.1447C81.7031 33.2707 84.5009 34.3118 84.5895 34.3754C84.6781 34.439 83.1405 34.7855 81.2658 35.0779C72.1405 36.5304 71.1245 37.01 73.1895 38.9218C75.1736 40.7218 77.2048 40.9978 82.2202 40.2206C84.8079 39.7954 86.7154 39.6071 86.4841 39.8171C86.2124 39.9711 84.3664 41.0092 82.3604 42.1204C72.714 47.4417 65.5234 54.3913 67.86 56.1491C70.8093 58.4002 73.6418 57.3721 82.0476 51.1604C90.1104 45.2396 96.6413 41.7904 105.085 39.043C111.231 37.0638 111.805 36.5628 110.079 35.0017C108.87 33.9187 107.336 33.6236 96.1325 32.3223C86.7747 31.218 79.0857 28.9486 73.2986 25.6005C69.4265 23.2509 65.8199 22.3271 64.7272 23.2882ZM60.5622 39.4178C56.4849 40.1971 47.3972 45.1138 47.1503 46.6552C46.5251 50.5566 52.0759 50.7546 58.1881 47.1395C60.4253 45.8183 63.2946 44.2526 64.5182 43.7076C69.0368 41.7145 69.0927 41.674 68.1642 40.6854C67.1145 39.5291 63.1653 38.8962 60.5622 39.4178ZM38.6503 51.9132C34.5827 52.941 26.5228 63.1604 25.6257 68.4509C24.4583 75.4273 31.287 74.743 35.1229 67.4532C37.1834 63.5347 40.452 59.1676 41.1745 59.2834C42.1859 59.4455 46.0715 62.6371 47.8571 64.7511C52.0908 69.7769 57.5453 68.7243 53.9284 63.5502C52.5609 61.602 46.0979 56.6141 44.6529 56.3826C44.2194 56.3131 44.129 55.9528 44.4143 55.4057C45.3106 53.8202 41.1166 51.3204 38.6503 51.9132ZM16.8668 60.5262C10.2385 62.4282 2.364 70.2565 5.00698 72.2609C7.77902 74.3848 10.8466 73.7401 14.2499 70.3827C15.597 69.067 18.2526 66.6766 20.0872 65.0933C24.7142 61.1909 22.9827 58.7397 16.8668 60.5262ZM51.7719 73.9251C51.1013 74.4105 50.1801 75.8437 49.6345 77.0902C46.338 84.7134 38.5923 86.1894 33.7981 80.0362C30.1115 75.2957 24.6489 76.3964 27.5744 81.2621C33.9686 91.9202 53.2402 90.6609 56.867 79.4348C58.1646 75.3447 54.7567 71.6368 51.7719 73.9251Z" fill="#121212"/>
</g>
<defs>
<clipPath id="clip0_137_585">
<rect width="100" height="100" fill="white" transform="translate(15.8223 0.21875) rotate(9.10375)"/>
</clipPath>
</defs>
</svg>
