<svg width="24" height="25" viewBox="0 0 24 25" fill="none" xmlns="http://www.w3.org/2000/svg">
<path d="M21.7959 15.5459L17.2959 20.0459C17.0846 20.2573 16.7979 20.376 16.4991 20.376C16.2002 20.376 15.9135 20.2573 15.7022 20.0459C15.4908 19.8346 15.3721 19.5479 15.3721 19.2491C15.3721 18.9502 15.4908 18.6635 15.7022 18.4522L18.2812 15.875H12C9.3156 15.872 6.74199 14.8043 4.84383 12.9062C2.94567 11.008 1.87798 8.4344 1.875 5.75C1.875 5.45163 1.99353 5.16548 2.2045 4.9545C2.41548 4.74353 2.70163 4.625 3 4.625C3.29837 4.625 3.58452 4.74353 3.7955 4.9545C4.00647 5.16548 4.125 5.45163 4.125 5.75C4.12723 7.83789 4.95764 9.83963 6.434 11.316C7.91037 12.7924 9.91211 13.6228 12 13.625H18.2812L15.7013 11.0459C15.4899 10.8346 15.3712 10.5479 15.3712 10.2491C15.3712 9.95018 15.4899 9.66353 15.7013 9.45219C15.9126 9.24084 16.1992 9.12211 16.4981 9.12211C16.797 9.12211 17.0837 9.24084 17.295 9.45219L21.795 13.9522C21.8999 14.0566 21.9832 14.1808 22.0401 14.3175C22.097 14.4542 22.1263 14.6008 22.1264 14.7489C22.1264 14.8969 22.0973 15.0436 22.0406 15.1803C21.9839 15.3171 21.9008 15.4414 21.7959 15.5459Z" fill="#152D33"/>
</svg>
