<svg width="32" height="33" viewBox="0 0 32 33" fill="none" xmlns="http://www.w3.org/2000/svg">
<path d="M22.7342 27.7402C21.4275 29.0069 20.0009 28.8069 18.6275 28.2069C17.1742 27.5935 15.8409 27.5669 14.3075 28.2069C12.3875 29.0335 11.3742 28.7935 10.2275 27.7402C3.72087 21.0335 4.68087 10.8202 12.0675 10.4469C13.8675 10.5402 15.1209 11.4335 16.1742 11.5135C17.7475 11.1935 19.2542 10.2735 20.9342 10.3935C22.9475 10.5535 24.4675 11.3535 25.4675 12.7935C21.3075 15.2869 22.2942 20.7669 26.1075 22.3002C25.3475 24.3002 24.3609 26.2869 22.7209 27.7535L22.7342 27.7402ZM16.0409 10.3669C15.8409 7.39353 18.2542 4.9402 21.0275 4.7002C21.4142 8.1402 17.9075 10.7002 16.0409 10.3669Z" fill="#161616"/>
</svg>
