<svg width="147" height="147" viewBox="0 0 147 147" fill="none" xmlns="http://www.w3.org/2000/svg">
<g clip-path="url(#clip0_143_1590)">
<path fill-rule="evenodd" clip-rule="evenodd" d="M124.68 112.204C120.245 112.072 109.161 110.552 93.928 112.905C91.6133 113.273 90.6347 112.93 91.0768 111.925C91.8903 110.183 94.797 109.373 103.501 108.617C111.781 107.868 108.002 108.2 99.408 105.237C55.5503 90.161 58.0993 79.477 54.2868 75.4184L51.1842 74.293C35.3027 68.4803 12.7394 43.3004 16.9121 36.0515C18.3221 33.6183 19.2053 34.2701 23.072 40.7979C30.4877 53.1931 40.5234 63.4359 50.4595 68.7736C52.8995 70.0755 52.7761 70.1438 52.8038 67.0496C52.8224 54.059 78.303 46.885 87.4023 57.3418C95.3758 66.5016 82.4064 78.8245 65.9974 77.6936C61.9095 77.3982 62.0733 77.2127 64.2542 80.0736C75.9907 95.505 102.822 101.135 112.487 104.522C115.815 105.694 115.806 105.661 111.278 101.58C103.074 94.2196 102.302 93.1837 103.819 91.8216C106.009 89.784 107.926 90.5864 113.646 95.9467C120.539 102.379 123.839 105.048 127.942 107.397C134.259 111.002 129.472 112.347 124.68 112.204ZM81.9506 70.7144C86.6482 65.1707 82.782 57.5784 74.5425 56.0821C63.7016 54.143 56.9896 60.1165 59.4461 69.6098C60.392 73.2963 64.1598 73.3221 64.5948 73.4901C71.836 74.9684 79.3941 73.7722 81.9506 70.7144Z" fill="#1B095D"/>
</g>
<defs>
<clipPath id="clip0_143_1590">
<rect width="120" height="120" fill="white" transform="matrix(0.96634 -0.257269 -0.257269 -0.96634 30.8711 146.833)"/>
</clipPath>
</defs>
</svg>
