<svg width="28" height="29" viewBox="0 0 28 29" fill="none" xmlns="http://www.w3.org/2000/svg">
<path d="M4.63163 9.86902C4.55027 9.78776 4.48573 9.69125 4.4417 9.58503C4.39767 9.47881 4.375 9.36494 4.375 9.24996C4.375 9.13497 4.39767 9.02111 4.4417 8.91488C4.48573 8.80866 4.55027 8.71216 4.63163 8.63089L8.13163 5.13089C8.254 5.00838 8.40997 4.92494 8.57979 4.89112C8.74962 4.8573 8.92566 4.87463 9.08563 4.94091C9.2456 5.0072 9.38231 5.11945 9.47844 5.26347C9.57458 5.40749 9.62582 5.5768 9.62569 5.74996V8.37496H22.7507C22.9828 8.37496 23.2053 8.46714 23.3694 8.63124C23.5335 8.79533 23.6257 9.01789 23.6257 9.24996C23.6257 9.48202 23.5335 9.70458 23.3694 9.86867C23.2053 10.0328 22.9828 10.125 22.7507 10.125H9.62569V12.75C9.62582 12.9231 9.57458 13.0924 9.47844 13.2364C9.38231 13.3805 9.2456 13.4927 9.08563 13.559C8.92566 13.6253 8.74962 13.6426 8.57979 13.6088C8.40997 13.575 8.254 13.4915 8.13163 13.369L4.63163 9.86902ZM23.3698 19.1309L19.8698 15.6309C19.7474 15.5084 19.5914 15.4249 19.4216 15.3911C19.2518 15.3573 19.0757 15.3746 18.9157 15.4409C18.7558 15.5072 18.6191 15.6195 18.5229 15.7635C18.4268 15.9075 18.3756 16.0768 18.3757 16.25V18.875H5.25069C5.01862 18.875 4.79606 18.9671 4.63197 19.1312C4.46788 19.2953 4.37569 19.5179 4.37569 19.75C4.37569 19.982 4.46788 20.2046 4.63197 20.3687C4.79606 20.5328 5.01862 20.625 5.25069 20.625H18.3757V23.25C18.3756 23.4231 18.4268 23.5924 18.5229 23.7364C18.6191 23.8805 18.7558 23.9927 18.9157 24.059C19.0757 24.1253 19.2518 24.1426 19.4216 24.1088C19.5914 24.075 19.7474 23.9915 19.8698 23.869L23.3698 20.369C23.4511 20.2878 23.5156 20.1913 23.5597 20.085C23.6037 19.9788 23.6264 19.8649 23.6264 19.75C23.6264 19.635 23.6037 19.5211 23.5597 19.4149C23.5156 19.3087 23.4511 19.2122 23.3698 19.1309Z" fill="#1B095D"/>
</svg>
