<svg width="24" height="24" viewBox="0 0 24 24" fill="none" xmlns="http://www.w3.org/2000/svg">
<path d="M23.375 11.9997C23.3714 14.7798 22.3514 17.4626 20.507 19.5429C18.6627 21.6231 16.1213 22.9572 13.3617 23.2937C13.3002 23.3007 13.238 23.2945 13.1791 23.2757C13.1202 23.2568 13.066 23.2257 13.02 23.1844C12.974 23.143 12.9373 23.0924 12.9123 23.0359C12.8873 22.9793 12.8746 22.9181 12.875 22.8562V14.6247H15.5C15.6199 14.6249 15.7386 14.6005 15.8487 14.553C15.9589 14.5054 16.058 14.4357 16.1401 14.3482C16.2222 14.2607 16.2853 14.1573 16.3258 14.0444C16.3662 13.9314 16.3829 13.8114 16.375 13.6917C16.3556 13.4667 16.2518 13.2574 16.0844 13.1058C15.917 12.9542 15.6984 12.8716 15.4726 12.8747H12.875V10.2497C12.875 9.78554 13.0593 9.34042 13.3875 9.01223C13.7157 8.68404 14.1608 8.49967 14.625 8.49967H16.375C16.4949 8.49993 16.6136 8.47553 16.7237 8.42798C16.8339 8.38042 16.933 8.31074 17.0151 8.22324C17.0972 8.13575 17.1603 8.03232 17.2008 7.91937C17.2411 7.80643 17.2579 7.68639 17.25 7.5667C17.2306 7.34131 17.1265 7.13166 16.9586 6.98002C16.7907 6.82839 16.5716 6.74607 16.3454 6.74967H14.625C13.6967 6.74967 12.8065 7.11842 12.1501 7.77479C11.4937 8.43117 11.125 9.32141 11.125 10.2497V12.8747H8.49995C8.38 12.8744 8.26127 12.8988 8.15115 12.9464C8.04103 12.9939 7.94186 13.0636 7.8598 13.1511C7.77774 13.2386 7.71455 13.342 7.67415 13.455C7.63375 13.5679 7.617 13.6879 7.62495 13.8076C7.6443 14.033 7.74842 14.2427 7.91629 14.3943C8.08416 14.5459 8.30329 14.6283 8.52948 14.6247H11.125V22.8584C11.1253 22.9202 11.1126 22.9813 11.0877 23.0378C11.0628 23.0942 11.0262 23.1448 10.9803 23.1861C10.9344 23.2274 10.8803 23.2586 10.8216 23.2775C10.7628 23.2964 10.7007 23.3027 10.6393 23.2959C7.80581 22.9508 5.2051 21.5546 3.35197 19.3834C1.49884 17.2123 0.528355 14.4246 0.632607 11.572C0.851357 5.66576 5.63542 0.864198 11.546 0.634511C13.0763 0.575236 14.6028 0.825207 16.0342 1.36947C17.4656 1.91374 18.7726 2.74111 19.8769 3.80212C20.9812 4.86312 21.8601 6.13595 22.4612 7.54447C23.0622 8.95299 23.373 10.4683 23.375 11.9997Z" fill="#2C3952"/>
</svg>
