<svg width="24" height="24" viewBox="0 0 24 24" fill="none" xmlns="http://www.w3.org/2000/svg">
<path d="M17.25 0.625H6.75C5.12608 0.626737 3.56917 1.27261 2.42089 2.42089C1.27261 3.56917 0.626737 5.12608 0.625 6.75V17.25C0.626737 18.8739 1.27261 20.4308 2.42089 21.5791C3.56917 22.7274 5.12608 23.3733 6.75 23.375H17.25C18.8739 23.3733 20.4308 22.7274 21.5791 21.5791C22.7274 20.4308 23.3733 18.8739 23.375 17.25V6.75C23.3733 5.12608 22.7274 3.56917 21.5791 2.42089C20.4308 1.27261 18.8739 0.626737 17.25 0.625ZM12 17.25C10.9616 17.25 9.94661 16.9421 9.08326 16.3652C8.2199 15.7883 7.54699 14.9684 7.14963 14.0091C6.75227 13.0498 6.64831 11.9942 6.85088 10.9758C7.05345 9.95738 7.55346 9.02192 8.28769 8.28769C9.02192 7.55346 9.95738 7.05345 10.9758 6.85088C11.9942 6.64831 13.0498 6.75227 14.0091 7.14963C14.9684 7.54699 15.7883 8.2199 16.3652 9.08326C16.9421 9.94661 17.25 10.9616 17.25 12C17.2486 13.3919 16.695 14.7265 15.7107 15.7107C14.7265 16.695 13.3919 17.2486 12 17.25ZM18.5625 6.75C18.3029 6.75 18.0492 6.67302 17.8333 6.5288C17.6175 6.38458 17.4492 6.1796 17.3499 5.93977C17.2506 5.69994 17.2246 5.43604 17.2752 5.18144C17.3259 4.92684 17.4509 4.69298 17.6344 4.50942C17.818 4.32587 18.0518 4.20086 18.3064 4.15022C18.561 4.09958 18.8249 4.12557 19.0648 4.22491C19.3046 4.32425 19.5096 4.49247 19.6538 4.70831C19.798 4.92415 19.875 5.17791 19.875 5.4375C19.875 5.7856 19.7367 6.11944 19.4906 6.36558C19.2444 6.61172 18.9106 6.75 18.5625 6.75ZM15.5 12C15.5 12.6922 15.2947 13.3689 14.9101 13.9445C14.5256 14.5201 13.9789 14.9687 13.3394 15.2336C12.6999 15.4985 11.9961 15.5678 11.3172 15.4327C10.6383 15.2977 10.0146 14.9644 9.52513 14.4749C9.03564 13.9854 8.7023 13.3617 8.56725 12.6828C8.4322 12.0039 8.50151 11.3001 8.76642 10.6606C9.03133 10.0211 9.47993 9.47444 10.0555 9.08986C10.6311 8.70527 11.3078 8.5 12 8.5C12.9283 8.5 13.8185 8.86875 14.4749 9.52513C15.1313 10.1815 15.5 11.0717 15.5 12Z" fill="#2C3952"/>
</svg>
