<svg width="70" height="71" viewBox="0 0 70 71" fill="none" xmlns="http://www.w3.org/2000/svg">
<g clip-path="url(#clip0_137_1131)">
<path d="M54.9383 39.0711L56.945 39.0244C78.925 38.651 71.5983 6.35761 48.0783 14.8976C30.7183 21.1976 33.9383 50.1776 52.5117 54.9376C60.725 57.0376 69.8717 55.5443 63.0583 53.2109C57.225 51.2509 52.5117 45.6045 52.8383 40.9845C52.9317 39.9578 53.8183 39.0711 54.9383 39.0711Z" fill="white"/>
<path d="M12.0512 13.7309C-9.08879 21.8509 -0.502148 57.3177 22.9712 58.8577C29.0845 59.2777 30.6712 57.831 26.0512 56.1043C21.5712 54.4243 15.9245 46.491 15.3179 41.1243C15.1779 40.051 16.0178 39.1642 17.0911 39.1642C23.2511 39.1642 25.8179 39.1644 29.4112 34.2178C38.2312 21.9911 26.5179 8.17757 12.0512 13.7309Z" fill="white"/>
</g>
<defs>
<clipPath id="clip0_137_1131">
<rect width="70" height="70" fill="white" transform="translate(0 0.799805)"/>
</clipPath>
</defs>
</svg>
