<svg width="105" height="143" viewBox="0 0 105 143" fill="none" xmlns="http://www.w3.org/2000/svg">
<g style="mix-blend-mode:overlay">
<path d="M-1.36629 13.5591L5.34793 38.0569L30.0998 43.6712L39.4001 52.5712L0.0107065 43.6368L-10.6741 4.65189L-1.36629 13.5591Z" fill="#E1F9FF" fill-opacity="0.5"/>
<path d="M89.9083 100.906L99.216 109.813L59.8004 100.853L49.1163 61.8693L58.424 70.7765L65.1383 95.275L89.9083 100.906Z" fill="#E1F9FF" fill-opacity="0.5"/>
<path d="M-29.0995 14.1743L-23.7617 8.59649L-11.0041 55.1443L36.0283 65.8123L48.7862 112.362L95.8511 123.062L90.5133 128.639L43.4484 117.94L30.691 71.3922L-16.3414 60.7242L-29.0995 14.1743Z" fill="#E1F9FF" fill-opacity="0.5"/>
<path d="M-45.4516 31.2617L-40.1138 25.6839L-27.3562 72.2317L19.6762 82.8997L32.4341 129.45L79.499 140.149L74.1612 145.727L27.0963 135.028L14.3389 88.4796L-32.6934 77.8116L-45.4516 31.2617Z" fill="#E1F9FF" fill-opacity="0.5"/>
<path d="M-61.8037 48.3491L-56.4659 42.7713L-43.7083 89.3191L3.32414 99.9871L16.0821 146.537L63.147 157.236L57.8091 162.814L10.7442 152.115L-2.01312 105.567L-49.0455 94.899L-61.8037 48.3491Z" fill="#E1F9FF" fill-opacity="0.5"/>
<path d="M-78.1557 65.4365L-72.8179 59.8587L-60.0604 106.406L-13.0279 117.074L-0.270019 163.625L46.7949 174.324L41.4571 179.902L-5.60784 169.202L-18.3652 122.654L-65.3976 111.986L-78.1557 65.4365Z" fill="#E1F9FF" fill-opacity="0.5"/>
<path d="M-94.5078 82.5239L-89.17 76.946L-76.4124 123.494L-29.38 134.162L-16.6221 180.712L30.4429 191.411L25.105 196.989L-21.9599 186.29L-34.7172 139.742L-81.7496 129.074L-94.5078 82.5239Z" fill="#E1F9FF" fill-opacity="0.5"/>
<path d="M-110.86 99.6113L-105.522 94.0334L-92.7645 140.581L-45.7321 151.249L-32.9742 197.799L14.0908 208.499L8.75292 214.076L-38.312 203.377L-51.0693 156.829L-98.1017 146.161L-110.86 99.6113Z" fill="#E1F9FF" fill-opacity="0.5"/>
<path d="M-127.212 116.699L-121.874 111.121L-115.83 133.173L-125.138 124.266L-127.212 116.699Z" fill="#E1F9FF" fill-opacity="0.5"/>
<path d="M-65.3476 181.483L-67.4214 173.917L-75.0666 172.182L-84.3669 163.282L-62.0842 168.337L-56.0399 190.39L-65.3476 181.483Z" fill="#E1F9FF" fill-opacity="0.5"/>
<path d="M-2.2613 225.586L-24.5584 220.517L-15.2507 229.424L-7.59915 231.164L-2.2613 225.586Z" fill="#E1F9FF" fill-opacity="0.5"/>
</g>
</svg>
