<svg width="28" height="31" viewBox="0 0 28 31" fill="none" xmlns="http://www.w3.org/2000/svg">
<g clip-path="url(#clip0_188_851)">
<path d="M13.0754 14.7799L0.115234 28.3583C0.260776 28.874 0.522318 29.3497 0.879869 29.7489C1.23742 30.1481 1.68151 30.4603 2.1782 30.6616C2.67489 30.8628 3.21102 30.9479 3.74561 30.9102C4.2802 30.8725 4.7991 30.7131 5.26264 30.4442L19.8453 22.1389L13.0754 14.7799Z" fill="#EA4335"/>
<path d="M26.1816 12.4719L19.8756 8.85986L12.7773 15.0888L19.9044 22.1194L26.1624 18.5461C26.7168 18.2558 27.1812 17.8193 27.5052 17.284C27.8292 16.7486 28.0005 16.1347 28.0005 15.5089C28.0005 14.8831 27.8292 14.2693 27.5052 13.7339C27.1812 13.1985 26.7168 12.762 26.1624 12.4718L26.1816 12.4719Z" fill="#FBBC04"/>
<path d="M0.115971 2.59229C0.03768 2.8819 -0.0013152 3.18073 3.38367e-05 3.48074V27.4696C0.000806908 27.7695 0.0397661 28.0681 0.115971 28.3582L13.5204 15.1275L0.115971 2.59229Z" fill="#4285F4"/>
<path d="M13.172 15.4753L19.8743 8.85996L5.31098 0.51596C4.76305 0.195076 4.13985 0.0251356 3.50487 0.0234442C1.92911 0.0203817 0.543766 1.06623 0.115234 2.58271L13.172 15.4753Z" fill="#34A853"/>
</g>
<defs>
<clipPath id="clip0_188_851">
<rect width="28" height="30.9531" fill="white" transform="translate(0 0.0234375)"/>
</clipPath>
</defs>
</svg>
