<svg width="99" height="138" viewBox="0 0 99 138" fill="none" xmlns="http://www.w3.org/2000/svg">
<g style="mix-blend-mode:overlay">
<path d="M128.634 -83.4409L135.348 -58.9431L160.1 -53.3288L169.4 -44.4288L130.011 -53.3632L119.326 -92.3481L128.634 -83.4409Z" fill="#E1F9FF" fill-opacity="0.5"/>
<path d="M219.908 3.90595L229.216 12.8131L189.8 3.8529L179.116 -35.1307L188.424 -26.2235L195.138 -1.72495L219.908 3.90595Z" fill="#E1F9FF" fill-opacity="0.5"/>
<path d="M100.9 -82.8257L106.238 -88.4035L118.996 -41.8557L166.028 -31.1877L178.786 15.3625L225.851 26.0616L220.513 31.6394L173.448 20.9403L160.691 -25.6078L113.659 -36.2758L100.9 -82.8257Z" fill="#E1F9FF" fill-opacity="0.5"/>
<path d="M84.5484 -65.7383L89.8862 -71.3161L102.644 -24.7683L149.676 -14.1003L162.434 32.4499L209.499 43.149L204.161 48.7268L157.096 38.0277L144.339 -8.52037L97.3066 -19.1884L84.5484 -65.7383Z" fill="#E1F9FF" fill-opacity="0.5"/>
<path d="M68.1963 -48.6509L73.5341 -54.2287L86.2917 -7.68094L133.324 2.98707L146.082 49.5372L193.147 60.2363L187.809 65.8142L140.744 55.1151L127.987 8.567L80.9545 -2.10099L68.1963 -48.6509Z" fill="#E1F9FF" fill-opacity="0.5"/>
<path d="M51.8443 -31.5635L57.1821 -37.1413L69.9396 9.40646L116.972 20.0745L129.73 66.6246L176.795 77.3237L171.457 82.9016L124.392 72.2025L111.635 25.6544L64.6024 14.9864L51.8443 -31.5635Z" fill="#E1F9FF" fill-opacity="0.5"/>
<path d="M35.4922 -14.4761L40.83 -20.054L53.5876 26.4938L100.62 37.1618L113.378 83.712L160.443 94.4111L155.105 99.989L108.04 89.2898L95.2828 42.7418L48.2504 32.0738L35.4922 -14.4761Z" fill="#E1F9FF" fill-opacity="0.5"/>
<path d="M19.1401 2.61126L24.4779 -2.96657L37.2355 43.5812L84.2679 54.2492L97.0258 100.799L144.091 111.499L138.753 117.076L91.688 106.377L78.9307 59.8292L31.8983 49.1612L19.1401 2.61126Z" fill="#E1F9FF" fill-opacity="0.5"/>
<path d="M2.78804 19.6987L8.12585 14.1208L14.1698 36.1731L4.86202 27.2658L2.78804 19.6987Z" fill="#E1F9FF" fill-opacity="0.5"/>
<path d="M64.6524 84.4832L62.5786 76.9166L54.9334 75.1825L45.6331 66.2824L67.9158 71.3366L73.9601 93.3904L64.6524 84.4832Z" fill="#E1F9FF" fill-opacity="0.5"/>
<path d="M127.739 128.586L105.442 123.517L114.749 132.424L122.401 134.164L127.739 128.586Z" fill="#E1F9FF" fill-opacity="0.5"/>
</g>
</svg>
