<svg width="70" height="71" viewBox="0 0 70 71" fill="none" xmlns="http://www.w3.org/2000/svg">
<g clip-path="url(#clip0_137_1139)">
<path d="M15.0617 39.0711L13.055 39.0244C-8.92501 38.651 -1.59834 6.35761 21.9217 14.8976C39.2817 21.1976 36.0617 50.1776 17.4883 54.9376C9.27499 57.0376 0.12833 55.5443 6.94167 53.2109C12.775 51.2509 17.4883 45.6045 17.1617 40.9845C17.0683 39.9578 16.1817 39.0711 15.0617 39.0711Z" fill="white"/>
<path d="M57.9488 13.7309C79.0888 21.8509 70.5021 57.3177 47.0288 58.8577C40.9155 59.2777 39.3288 57.831 43.9488 56.1043C48.4288 54.4243 54.0755 46.491 54.6821 41.1243C54.8221 40.051 53.9822 39.1642 52.9089 39.1642C46.7489 39.1642 44.1821 39.1644 40.5888 34.2178C31.7688 21.9911 43.4821 8.17757 57.9488 13.7309Z" fill="white"/>
</g>
<defs>
<clipPath id="clip0_137_1139">
<rect width="70" height="70" fill="white" transform="matrix(-1 0 0 1 70 0.799805)"/>
</clipPath>
</defs>
</svg>
