<svg width="262" height="483" viewBox="0 0 262 483" fill="none" xmlns="http://www.w3.org/2000/svg">
<g style="mix-blend-mode:overlay">
<path d="M-56.5134 -53.85L-36.2359 20.1354L38.517 37.091L66.6046 63.9699L-52.3548 36.9873L-84.6238 -80.7507L-56.5134 -53.85Z" fill="#E1F9FF" fill-opacity="0.5"/>
<path d="M219.144 209.945L247.254 236.845L128.215 209.785L95.9483 92.051L124.058 118.951L144.336 192.939L219.144 209.945Z" fill="#E1F9FF" fill-opacity="0.5"/>
<path d="M-140.27 -51.9921L-124.15 -68.8376L-85.6206 71.7409L56.4214 103.959L94.9515 244.545L237.092 276.857L220.971 293.703L78.8308 261.39L40.3024 120.811L-101.739 88.5928L-140.27 -51.9921Z" fill="#E1F9FF" fill-opacity="0.5"/>
<path d="M-189.655 -0.386645L-173.534 -17.2322L-135.005 123.346L7.03669 155.565L45.5668 296.15L187.707 328.462L171.586 345.308L29.4461 312.996L-9.08228 172.417L-151.124 140.198L-189.655 -0.386645Z" fill="#E1F9FF" fill-opacity="0.5"/>
<path d="M-239.04 51.2187L-222.919 34.3732L-184.39 174.952L-42.348 207.17L-3.81789 347.756L138.322 380.068L122.202 396.913L-19.9386 364.601L-58.4669 224.022L-200.509 191.804L-239.04 51.2187Z" fill="#E1F9FF" fill-opacity="0.5"/>
<path d="M-288.424 102.824L-272.304 85.9786L-233.775 226.557L-91.7327 258.775L-53.2026 399.361L88.9376 431.673L72.8168 448.519L-69.3233 416.207L-107.852 275.627L-249.894 243.409L-288.424 102.824Z" fill="#E1F9FF" fill-opacity="0.5"/>
<path d="M-337.809 154.43L-321.688 137.584L-283.159 278.162L-141.117 310.381L-102.587 450.966L39.553 483.279L23.4322 500.124L-118.708 467.812L-157.236 327.233L-299.278 295.014L-337.809 154.43Z" fill="#E1F9FF" fill-opacity="0.5"/>
<path d="M-387.194 206.035L-371.073 189.189L-332.544 329.768L-190.502 361.986L-151.972 502.572L-9.83173 534.884L-25.9525 551.73L-168.093 519.417L-206.621 378.838L-348.663 346.62L-387.194 206.035Z" fill="#E1F9FF" fill-opacity="0.5"/>
<path d="M-436.578 257.64L-420.458 240.795L-402.205 307.395L-430.315 280.494L-436.578 257.64Z" fill="#E1F9FF" fill-opacity="0.5"/>
<path d="M-249.743 453.296L-256.006 430.444L-279.095 425.206L-307.183 398.328L-239.887 413.592L-221.633 480.196L-249.743 453.296Z" fill="#E1F9FF" fill-opacity="0.5"/>
<path d="M-59.2165 586.49L-126.556 571.182L-98.4456 598.082L-75.3373 603.335L-59.2165 586.49Z" fill="#E1F9FF" fill-opacity="0.5"/>
</g>
</svg>
