<svg width="147" height="147" viewBox="0 0 147 147" fill="none" xmlns="http://www.w3.org/2000/svg">
<g clip-path="url(#clip0_1_33)">
<path fill-rule="evenodd" clip-rule="evenodd" d="M124.681 112.204C120.247 112.072 109.163 110.552 93.9298 112.905C91.6151 113.272 90.6365 112.93 91.0786 111.925C91.8921 110.183 94.7988 109.373 103.503 108.617C111.783 107.867 108.004 108.2 99.4098 105.237C55.5521 90.1609 58.1011 79.4769 54.2886 75.4183L51.186 74.2929C35.3045 68.4802 12.7412 43.3003 16.9139 36.0514C18.3239 33.6182 19.2071 34.27 23.0738 40.7978C30.4895 53.193 40.5252 63.4358 50.4613 68.7736C52.9013 70.0754 52.7779 70.1437 52.8056 67.0496C52.8242 54.0589 78.3048 46.885 87.4041 57.3417C95.3776 66.5015 82.4082 78.8244 65.9992 77.6935C61.9113 77.3981 62.0751 77.2126 64.256 80.0735C75.9925 95.505 102.824 101.134 112.489 104.522C115.817 105.694 115.808 105.66 111.28 101.579C103.076 94.2195 102.303 93.1836 103.821 91.8215C106.011 89.7839 107.928 90.5863 113.648 95.9466C120.54 102.378 123.841 105.048 127.944 107.397C134.261 111.002 129.474 112.347 124.681 112.204ZM81.9524 70.7144C86.65 65.1706 82.7838 57.5783 74.5443 56.082C63.7034 54.1429 56.9914 60.1165 59.4479 69.6097C60.3938 73.2962 64.1616 73.322 64.5966 73.49C71.8378 74.9683 79.3959 73.7721 81.9524 70.7144Z" fill="white"/>
</g>
<defs>
<clipPath id="clip0_1_33">
<rect width="120" height="120" fill="white" transform="matrix(0.96634 -0.257269 -0.257269 -0.96634 30.8723 146.833)"/>
</clipPath>
</defs>
</svg>
