<svg width="20" height="20" viewBox="0 0 20 20" fill="none" xmlns="http://www.w3.org/2000/svg">
<path fill-rule="evenodd" clip-rule="evenodd" d="M4.71986 2.82374L1.67965 9.20841C1.66749 9.23155 1.6633 9.25804 1.66774 9.2838C1.67217 9.30955 1.68497 9.33313 1.70416 9.35086L9.91099 17.2189C9.93461 17.2402 9.96527 17.2519 9.99706 17.2519C10.0289 17.2519 10.0595 17.2402 10.0831 17.2189L18.2949 9.35086C18.3139 9.333 18.3265 9.30944 18.3309 9.28374C18.3354 9.25804 18.3313 9.2316 18.3194 9.20841L15.2792 2.82374C15.2711 2.80154 15.2562 2.78245 15.2366 2.76919C15.2171 2.75594 15.1938 2.7492 15.1702 2.74993H4.82772C4.80441 2.75057 4.78177 2.75786 4.76247 2.77093C4.74317 2.78401 4.728 2.80234 4.71877 2.82374H4.71986Z" fill="#50AF95"/>
<path fill-rule="evenodd" clip-rule="evenodd" d="M11.0567 9.86157C10.9978 9.86647 10.6933 9.88608 10.0154 9.88608C9.47528 9.88608 9.09205 9.87137 8.9545 9.86157C6.86732 9.76842 5.31044 9.4048 5.31044 8.97255C5.31044 8.54029 6.86732 8.17205 8.9545 8.07889V9.49822C9.09069 9.50803 9.48018 9.53254 10.0203 9.53254C10.6685 9.53254 10.9927 9.50313 11.0518 9.49822V8.07889C13.134 8.17205 14.6909 8.53566 14.6909 8.96764C14.6909 9.39963 13.1384 9.76842 11.0567 9.86157ZM11.0567 7.93644V6.6642H13.9642V4.72437H6.04721V6.6642H8.9545V7.93644C6.59222 8.04539 4.81445 8.51088 4.81445 9.07578C4.81445 9.64067 6.59222 10.1023 8.9545 10.2151V14.2868H11.0567V10.2151C13.414 10.1062 15.1872 9.6404 15.1872 9.08068C15.1872 8.52095 13.414 8.0443 11.0567 7.93672V7.93644Z" fill="white"/>
</svg>
