<svg width="20" height="22" viewBox="0 0 20 22" fill="none" xmlns="http://www.w3.org/2000/svg">
<path d="M19.5161 21.0461C19.4407 21.1833 19.3299 21.2978 19.1953 21.3777C19.0606 21.4575 18.907 21.4998 18.7504 21.5H13.5004C13.3532 21.5 13.2083 21.4627 13.0792 21.3918C12.9502 21.3209 12.8411 21.2185 12.7621 21.0942L8.33355 14.1347L1.89793 21.2134C1.74104 21.382 1.52405 21.4819 1.29401 21.4915C1.06396 21.5011 0.839396 21.4196 0.669001 21.2648C0.498606 21.1099 0.396114 20.8942 0.383745 20.6642C0.371376 20.4343 0.450127 20.2088 0.602926 20.0366L7.35902 12.5991L0.512144 1.84531C0.427818 1.71302 0.380612 1.56048 0.37547 1.40368C0.370328 1.24688 0.407439 1.09158 0.482916 0.95404C0.558394 0.816503 0.669462 0.701788 0.80449 0.621909C0.939518 0.54203 1.09354 0.499924 1.25043 0.5H6.50043C6.64769 0.500046 6.79256 0.537259 6.92162 0.608191C7.05067 0.679124 7.15974 0.781482 7.23871 0.905781L11.6673 7.86531L18.1029 0.786563C18.2598 0.618036 18.4768 0.518138 18.7068 0.508527C18.9369 0.498915 19.1615 0.580365 19.3318 0.735217C19.5022 0.89007 19.6047 1.10584 19.6171 1.33576C19.6295 1.56567 19.5507 1.7912 19.3979 1.96344L12.6418 9.39547L19.4887 20.1558C19.5726 20.2881 19.6193 20.4406 19.6241 20.5972C19.629 20.7538 19.5916 20.9088 19.5161 21.0461Z" fill="#2C3952"/>
</svg>
