<svg width="16" height="16" viewBox="0 0 16 16" fill="none" xmlns="http://www.w3.org/2000/svg">
<mask id="mask0_137_1519" style="mask-type:alpha" maskUnits="userSpaceOnUse" x="0" y="0" width="16" height="16">
<circle cx="8" cy="8" r="8" fill="#D9D9D9"/>
</mask>
<g mask="url(#mask0_137_1519)">
<rect width="16" height="16" fill="#004692"/>
<path d="M9.5076 7.33432L9.03619 7.80573L14.693 13.4626L15.1645 12.9912L9.5076 7.33432Z" fill="#F5F7F8"/>
<path d="M8.25052 8.5914L7.46484 9.37707L13.1217 15.0339L13.9074 14.2483L8.25052 8.5914Z" fill="#F5F7F8"/>
<path d="M8.25052 8.5914L9.03619 7.80573L14.693 13.4626L13.9074 14.2483L8.25052 8.5914Z" fill="#DD2033"/>
<path d="M8.49783 9.37613L8.02643 8.90472L2.36957 14.5616L2.84098 15.033L8.49783 9.37613Z" fill="#F5F7F8"/>
<path d="M7.24075 8.11905L6.45508 7.33338L0.798224 12.9902L1.5839 13.7759L7.24075 8.11905Z" fill="#F5F7F8"/>
<path d="M7.24075 8.11905L8.02643 8.90472L2.36957 14.5616L1.5839 13.7759L7.24075 8.11905Z" fill="#DD2033"/>
<path d="M6.67795 9.03299L7.14935 8.56158L1.4925 2.90473L1.0211 3.37613L6.67795 9.03299Z" fill="#F5F7F8"/>
<path d="M7.93503 7.77591L8.7207 6.99024L3.06385 1.33338L2.27817 2.11905L7.93503 7.77591Z" fill="#F5F7F8"/>
<path d="M7.93503 7.77591L7.14935 8.56158L1.4925 2.90473L2.27817 2.11905L7.93503 7.77591Z" fill="#DD2033"/>
<path d="M7.24436 6.99106L7.71576 7.46246L13.3726 1.80561L12.9012 1.33421L7.24436 6.99106Z" fill="#F5F7F8"/>
<path d="M8.50143 8.24814L9.28711 9.03381L14.944 3.37696L14.1583 2.59129L8.50143 8.24814Z" fill="#F5F7F8"/>
<path d="M8.50143 8.24814L7.71576 7.46246L13.3726 1.80561L14.1583 2.59129L8.50143 8.24814Z" fill="#DD2033"/>
<path fill-rule="evenodd" clip-rule="evenodd" d="M6.66667 16H5.55556V10.4444H0V9.33333H5.55556L5.55556 6.66667L0 6.66667V5.55555L5.55556 5.55556L5.55556 0H6.66667L6.66667 5.55556H9.33333L9.33333 0H10.4444L10.4444 5.55556L16 5.55556V6.66667H10.4444V9.33333H16V10.4444L10.4444 10.4444L10.4444 16H9.33333L9.33333 10.4444H6.66667L6.66667 16ZM9.33333 6.66667H6.66667L6.66667 9.33333H9.33333V6.66667Z" fill="#F5F7F8"/>
<path d="M6.66667 16H9.33333L9.33333 9.33333H16V6.66667H9.33333L9.33333 0H6.66667L6.66667 6.66667L0 6.66667V9.33333H6.66667L6.66667 16Z" fill="#DD2033"/>
</g>
</svg>
